<?xml version="1.0" standalone="no"?><!DOCTYPE svg PUBLIC "-//W3C//DTD SVG 1.1//EN" "http://www.w3.org/Graphics/SVG/1.1/DTD/svg11.dtd"><svg t="1761541882046" class="icon" viewBox="0 0 1024 1024" version="1.1" xmlns="http://www.w3.org/2000/svg" p-id="18643" width="24" height="24" xmlns:xlink="http://www.w3.org/1999/xlink"><path d="M896.1 160.1h-768a64.19 64.19 0 0 0-64 64v512a64.19 64.19 0 0 0 64 64h192v64h384v-64h192a64.19 64.19 0 0 0 64-64v-512a64.19 64.19 0 0 0-64-64z m0 576h-768v-512h768z" fill="#fff" p-id="18644" data-spm-anchor-id="a313x.search_index.0.i34.ae803a819oYn5L" class="selected"></path><path d="M480.1 669.43V290.77c-90.8 15.24-160 94.2-160 189.33s69.19 174.1 160 189.33zM544.1 290.77V448.1h157.33A192.15 192.15 0 0 0 544.1 290.77zM701.43 512.1H544.1v157.33A192.15 192.15 0 0 0 701.43 512.1z" fill="#fff" p-id="18645" data-spm-anchor-id="a313x.search_index.0.i31.ae803a819oYn5L" class="selected"></path></svg>