<?xml version="1.0" standalone="no"?><!DOCTYPE svg PUBLIC "-//W3C//DTD SVG 1.1//EN" "http://www.w3.org/Graphics/SVG/1.1/DTD/svg11.dtd"><svg t="1761541590891" class="icon" viewBox="0 0 1024 1024" version="1.1" xmlns="http://www.w3.org/2000/svg" p-id="13198" data-spm-anchor-id="a313x.search_index.0.i13.ae803a819oYn5L" width="24" height="24" xmlns:xlink="http://www.w3.org/1999/xlink"><path d="M447.8 132.6v379.2c0 35.3 28.7 64 64 64H891c-4.9 29.4-13.2 58-24.9 85.6-19.4 45.8-47.1 86.9-82.4 122.2-35.3 35.3-76.5 63.1-122.2 82.4-47.4 20-97.7 30.2-149.6 30.2S409.6 886 362.3 866c-45.8-19.4-86.9-47.1-122.2-82.4-35.3-35.3-63.1-76.5-82.4-122.2-20-47.4-30.2-97.7-30.2-149.6s10.2-102.3 30.2-149.6c19.4-45.8 47.1-86.9 82.4-122.2 35.3-35.3 76.5-63.1 122.2-82.4 27.5-11.8 56.2-20.1 85.5-25m64-69.3c-247.7 0-448.5 200.8-448.5 448.5s200.8 448.5 448.5 448.5 448.5-200.8 448.5-448.5H511.8V63.3z" p-id="13199" data-spm-anchor-id="a313x.search_index.0.i11.ae803a819oYn5L" fill="#fff" class="selected"></path><path d="M608.1 191.8c-17.7 0-32 14.3-32 32v224.4h64V223.8c0-17.7-14.3-32-32-32z m128-63.8c-17.7 0-32 14.3-32 32v288.4h64V160c0-17.7-14.3-32-32-32z m127.7-63.8c-17.7 0-32 14.3-32 32v352.2h64V96.2c0-17.7-14.4-32-32-32z" p-id="13200" fill="#fff"></path></svg>