<?xml version="1.0" standalone="no"?><!DOCTYPE svg PUBLIC "-//W3C//DTD SVG 1.1//EN" "http://www.w3.org/Graphics/SVG/1.1/DTD/svg11.dtd"><svg t="1761542110913" class="icon" viewBox="0 0 1024 1024" version="1.1" xmlns="http://www.w3.org/2000/svg" p-id="24544" data-spm-anchor-id="a313x.search_index.0.i47.ae803a819oYn5L" width="24" height="24" xmlns:xlink="http://www.w3.org/1999/xlink"><path d="M480 908.8H169.6c-67.2 0-92.8-28.8-92.8-92.8v-448c0-44.8 9.6-54.4 54.4-57.6h118.4c41.6 0 51.2-12.8 51.2-54.4V134.4c0-38.4 12.8-48 51.2-48h230.4c67.2 0 92.8 28.8 92.8 92.8v220.8c0 54.4 0 54.4 54.4 54.4 16 0 19.2-3.2 19.2-19.2V169.6c0-92.8-64-156.8-156.8-156.8h-268.8c-35.2 0-64 9.6-89.6 32C163.2 108.8 96 176 32 246.4c-22.4 22.4-32 51.2-32 86.4v502.4c0 86.4 64 150.4 150.4 150.4H448c51.2 0 51.2 0 51.2-51.2 3.2-19.2-3.2-25.6-19.2-25.6z" fill="#fff" p-id="24545"></path><path d="M876.8 931.2c-41.6-38.4-80-80-118.4-118.4-12.8-12.8-19.2-25.6-22.4-41.6-9.6-54.4-22.4-108.8-32-163.2-3.2-22.4-9.6-22.4-28.8-16-99.2 32-163.2 134.4-147.2 233.6 16 112 105.6 188.8 214.4 188.8 51.2 0 92.8-16 134.4-48 12.8-12.8 12.8-22.4 0-35.2zM972.8 643.2c-9.6-9.6-12.8-6.4-22.4 0-41.6 44.8-86.4 86.4-128 128-9.6 9.6-9.6 16 0 25.6 48 44.8 92.8 92.8 137.6 137.6 80-67.2 86.4-214.4 12.8-291.2zM537.6 348.8H236.8c-51.2 0-51.2 0-51.2 51.2 0 22.4 6.4 22.4 25.6 22.4h294.4c54.4 0 54.4 0 54.4-54.4 3.2-16-6.4-19.2-22.4-19.2zM502.4 534.4H236.8c-51.2 0-48 0-51.2 51.2 0 22.4 6.4 25.6 25.6 25.6h249.6c57.6 0 57.6 0 54.4-57.6 3.2-16 0-19.2-12.8-19.2zM752 547.2v6.4c9.6 54.4 22.4 105.6 32 163.2 48-48 92.8-96 137.6-140.8 12.8-12.8 9.6-19.2-3.2-28.8-38.4-28.8-80-48-128-48-44.8-3.2-44.8-3.2-38.4 48zM211.2 796.8h185.6c57.6 0 54.4 0 54.4-57.6 0-12.8-3.2-19.2-19.2-19.2H243.2c-54.4 0-54.4 0-54.4 54.4 0 22.4 6.4 22.4 22.4 22.4z" fill="#fff" p-id="24546"></path></svg>