<?xml version="1.0" standalone="no"?><!DOCTYPE svg PUBLIC "-//W3C//DTD SVG 1.1//EN" "http://www.w3.org/Graphics/SVG/1.1/DTD/svg11.dtd"><svg t="1761541955516" class="icon" viewBox="0 0 1024 1024" version="1.1" xmlns="http://www.w3.org/2000/svg" p-id="20622" data-spm-anchor-id="a313x.search_index.0.i38.ae803a819oYn5L" width="24" height="24" xmlns:xlink="http://www.w3.org/1999/xlink"><path d="M512 96l17.28 0.128c57.408 0.704 113.728 5.12 165.12 12.672l30.144 4.928c118.144 21.12 203.456 60.16 203.456 110.272V768c0 30.016-27.328 57.216-77.696 81.28-95.744 45.952-210.24 78.72-338.304 78.72-131.904 0-282.24-40.32-350.848-79.808-39.872-22.912-61.44-47.296-64.704-73.088L96 768V224l0.448-6.208c6.72-47.168 89.792-83.776 203.008-104.064L329.6 108.8c56.448-8.32 118.912-12.8 182.336-12.8z m0 640c-117.568 0-234.944-25.92-352-77.568V768l0.96 1.472 3.264 3.328 2.688 2.368 7.68 5.888c4.672 3.328 10.752 7.232 18.432 11.712 59.008 33.92 198.272 71.232 318.976 71.232 117.056 0 222.784-30.272 310.656-72.384l7.808-3.84 12.864-7.04 9.536-5.824 10.88-7.104 0.064-109.312C746.88 710.08 629.568 736 512 736zM512 576c-117.568 0-234.944-25.92-352-77.568v89.472l7.04 3.456c107.136 49.92 213.824 76.672 320.384 80.256L512 672c114.688 0 229.568-26.816 344.96-80.64l6.976-3.456 0.064-43.904v-45.568C747.008 550.08 629.568 576 512 576z m352.064-282.752c-35.584 17.152-83.904 31.04-139.52 41.024l-30.208 4.928c-56.448 8.32-118.912 12.8-182.336 12.8-63.36 0-125.888-4.48-182.4-12.8l-30.144-4.928c-55.552-9.984-103.872-23.872-139.52-40.96L160 427.84l7.04 3.456c107.136 49.92 213.824 76.672 320.384 80.256L512 512c114.688 0 229.568-26.816 344.96-80.64l7.04-3.456zM512 160a1100.8 1100.8 0 0 0-80.064 3.072l-31.488 2.688-15.488 1.6-30.272 3.712-29.12 4.224-14.016 2.304-26.88 4.864-24.96 5.12-22.848 5.312-10.496 2.624-19.136 5.376c-29.504 8.832-47.232 17.28-47.232 23.104 0 6.4 21.44 16 56.448 25.792l20.48 5.312 22.784 5.312 24.96 5.12 13.248 2.496 27.648 4.672 14.4 2.176 29.76 3.968 30.72 3.392 31.488 2.688c26.432 1.92 53.376 3.072 80.064 3.072a1100.8 1100.8 0 0 0 80.064-3.072l31.488-2.688 15.488-1.6 30.272-3.712 29.12-4.224 14.016-2.304 26.88-4.864 24.96-5.12 22.848-5.312 10.496-2.624 19.136-5.376c29.504-8.832 47.232-17.28 47.232-23.104 0-6.4-21.44-16-56.448-25.792l-20.48-5.312-22.784-5.312-24.96-5.12a1161.984 1161.984 0 0 0-13.248-2.496l-27.648-4.672a1291.776 1291.776 0 0 0-14.4-2.176l-29.76-3.968-30.72-3.392-31.488-2.688A1100.8 1100.8 0 0 0 512 160z" fill="#fff" p-id="20623" data-spm-anchor-id="a313x.search_index.0.i40.ae803a819oYn5L"></path></svg>